<svg xmlns="http://www.w3.org/2000/svg" viewBox="0 0 512 512" width="512" height="512">
	<style>
		tspan { white-space:pre }
		.shp0 { fill: #ffffff;stroke: #000000;paint-order:stroke fill markers;stroke-width: 10 } 
		.shp1 { fill: #ff0000 } 
	</style>
	<path id="tab-icon" class="shp0" d="M466.78 148.05C454.63 135.61 440.09 129.39 423.16 129.39L237.63 129.39L237.63 120.34C237.63 103 231.56 88.1 219.41 75.66C207.26 63.22 192.72 57 175.79 57L87.45 57C70.51 57 55.97 63.22 43.83 75.66C31.68 88.1 25.6 103 25.6 120.34L25.6 391.8C25.6 409.15 31.68 424.04 43.83 436.48C55.97 448.92 70.51 455.14 87.45 455.14L423.16 455.14C440.09 455.14 454.63 448.92 466.78 436.48C478.93 424.04 485 409.15 485 391.8L485 192.73C485 175.39 478.93 160.49 466.78 148.05Z" />
	<path id="Shape 1" class="shp1" d="M105.93 292.31C125.66 262.27 150.4 239.8 180.13 224.91C172.21 238.15 168.25 252.47 168.25 267.87C168.25 281.49 171.43 294.41 177.79 306.63C184.15 318.85 192.98 328.97 204.28 336.99L189.09 363.91C155.33 349.02 127.61 325.15 105.93 292.31L105.93 292.31ZM255.5 228.15C244.33 228.15 234.79 232.04 226.87 239.8C218.95 247.57 214.99 256.92 214.99 267.87C214.99 270.42 214.08 272.58 212.26 274.36C210.44 276.14 208.24 277.03 205.64 277.03C203.04 277.03 200.84 276.14 199.02 274.36C197.2 272.58 196.29 270.42 196.29 267.87C196.29 251.96 202.1 238.31 213.73 226.91C225.34 215.52 239.27 209.82 255.5 209.82C258.1 209.82 260.3 210.72 262.12 212.5C263.94 214.28 264.85 216.44 264.85 218.99C264.85 221.54 263.94 223.7 262.12 225.48C260.3 227.27 258.1 228.15 255.5 228.15L255.5 228.15ZM332.43 177.37C332.04 177.11 330.77 176.38 328.63 175.17C326.49 173.96 324.44 172.78 322.5 171.64C320.55 170.49 318.41 169.32 316.07 168.11C313.73 166.9 311.72 165.91 310.03 165.15C308.34 164.38 307.17 164 306.53 164C304.19 164 302.37 165.02 301.07 167.05L290.56 185.58C278.74 183.41 267.05 182.33 255.5 182.33C220.57 182.33 188.37 190.99 158.9 208.3C129.43 225.61 104.76 249.22 84.9 279.13C82.3 283.08 81 287.47 81 292.31C81 297.15 82.3 301.54 84.9 305.48C96.32 322.92 109.85 338.52 125.5 352.26C141.15 366.01 158.25 377.02 176.82 385.29C171.1 394.84 168.25 400.38 168.25 401.91C168.25 404.2 169.29 405.98 171.37 407.25C187.21 416.16 195.91 420.62 197.46 420.62C199.8 420.62 201.62 419.6 202.92 417.56L212.46 400.57C226.22 376.51 246.74 340.42 274 292.31C301.27 244.19 321.72 208.17 335.35 184.24C335.48 183.99 335.54 183.41 335.54 182.52C335.54 180.36 334.5 178.64 332.43 177.37L332.43 177.37ZM341.19 251.83L286.66 347.68C303.54 341.32 317.11 330.85 327.36 316.27C337.62 301.7 342.75 285.56 342.75 267.87C342.75 262.9 342.23 257.56 341.19 251.83L341.19 251.83ZM426.1 279.13C418.7 267.04 409.32 255.33 397.96 244C386.6 232.67 374.75 222.94 362.42 214.79L350.15 236.17C371.83 250.81 390.14 269.52 405.07 292.31C389.36 316.24 369.79 335.78 346.35 350.93C322.92 366.08 297.44 374.79 269.91 377.08L255.5 402.29C284.32 402.29 311.56 396.24 337.2 384.15C362.84 372.06 385.4 355.06 404.88 333.17C413.96 322.86 421.04 313.63 426.1 305.48C428.7 301.16 430 296.77 430 292.31C430 287.85 428.7 283.46 426.1 279.13L426.1 279.13Z" />
</svg>